HIERARCHY
ROOT Hips
{
 OFFSET 0.000000 0.000000 0.000000
 CHANNELS 6 Xposition Yposition Zposition Yrotation Xrotation Zrotation
 JOINT Chest
 {
  OFFSET 0.000000 9.857222 0.000240
  CHANNELS 3 Yrotation Xrotation Zrotation
  JOINT Chest2
  {
   OFFSET 0.000000 10.876940 -0.000436
   CHANNELS 3 Yrotation Xrotation Zrotation
   JOINT Chest3
   {
    OFFSET 0.000000 9.827798 0.000000
    CHANNELS 3 Yrotation Xrotation Zrotation
    JOINT Chest4
    {
     OFFSET 0.000000 9.827798 0.000000
     CHANNELS 3 Yrotation Xrotation Zrotation
     JOINT Neck
     {
      OFFSET 0.000000 13.831992 0.000000
      CHANNELS 3 Yrotation Xrotation Zrotation
      JOINT Head
      {
       OFFSET 0.000000 9.147643 -0.001036
       CHANNELS 3 Yrotation Xrotation Zrotation
       End Site
       {
        OFFSET 0.000000 17.515799 -0.000541
       }
      }
     }
     JOINT RightCollar
     {
      OFFSET -3.001579 7.717577 0.000000
      CHANNELS 3 Yrotation Xrotation Zrotation
      JOINT RightShoulder
      {
       OFFSET -14.002642 0.000000 0.000000
       CHANNELS 3 Yrotation Xrotation Zrotation
       JOINT RightElbow
       {
        OFFSET -30.053852 0.000000 0.000000
        CHANNELS 3 Yrotation Xrotation Zrotation
        JOINT RightWrist
        {
         OFFSET -24.564923 0.000000 -0.000000
         CHANNELS 3 Yrotation Xrotation Zrotation
         End Site
         {
          OFFSET -18.334355 0.000000 0.000000
         }
        }
       }
      }
     }
     JOINT LeftCollar
     {
      OFFSET 3.001579 7.717577 0.000000
      CHANNELS 3 Yrotation Xrotation Zrotation
      JOINT LeftShoulder
      {
       OFFSET 14.002642 0.000000 0.000000
       CHANNELS 3 Yrotation Xrotation Zrotation
       JOINT LeftElbow
       {
        OFFSET 30.053852 0.000000 0.000000
        CHANNELS 3 Yrotation Xrotation Zrotation
        JOINT LeftWrist
        {
         OFFSET 24.564923 0.000000 -0.000000
         CHANNELS 3 Yrotation Xrotation Zrotation
         End Site
         {
          OFFSET 18.334355 0.000000 0.000000
         }
        }
       }
      }
     }
    }
   }
  }
 }
 JOINT RightHip
 {
  OFFSET -8.003235 -0.001175 -0.000120
  CHANNELS 3 Yrotation Xrotation Zrotation
  JOINT RightKnee
  {
   OFFSET 0.000000 -41.759727 0.000113
   CHANNELS 3 Yrotation Xrotation Zrotation
   JOINT RightAnkle
   {
    OFFSET 0.000000 -40.728748 0.000159
    CHANNELS 3 Yrotation Xrotation Zrotation
    JOINT RightToe
    {
     OFFSET 0.000000 -6.515296 14.732841
     CHANNELS 3 Yrotation Xrotation Zrotation
     End Site
     {
      OFFSET 0.000000 -1.502839 6.412115
     }
    }
   }
  }
 }
 JOINT LeftHip
 {
  OFFSET 8.003235 -0.001175 -0.000120
  CHANNELS 3 Yrotation Xrotation Zrotation
  JOINT LeftKnee
  {
   OFFSET 0.000000 -41.759727 0.000113
   CHANNELS 3 Yrotation Xrotation Zrotation
   JOINT LeftAnkle
   {
    OFFSET 0.000000 -40.728748 0.000159
    CHANNELS 3 Yrotation Xrotation Zrotation
    JOINT LeftToe
    {
     OFFSET 0.000000 -6.515296 14.732841
     CHANNELS 3 Yrotation Xrotation Zrotation
     End Site
     {
      OFFSET 0.000000 -1.502839 6.412115
     }
    }
   }
  }
 }
}
MOTION
Frames: 11
Frame Time: 0.016667
5.855053 89.899884 19.841939 -37.260683 -8.923564 -0.658411 3.380469 1.788870 -0.060675 1.536280 0.740457 0.001390 1.536280 0.740457 0.001390 1.152192 0.555350 -0.000819 -2.111382 29.546280 1.655932 -4.048238 18.768224 3.323720 5.613405 23.592883 15.442542 35.783427 -8.800026 69.349915 25.942421 2.186230 -8.858552 -6.883292 8.388338 -4.328247 -26.188181 29.151902 -22.097539 -40.903930 13.635503 -66.799421 -42.485300 -17.290640 9.816957 8.124051 4.279523 9.817435 -8.838752 -19.127023 -1.938492 -5.212046 38.938019 -25.469965 3.363340 19.702843 -10.580476 -0.862522 -3.892421 1.258017 -21.819101 13.033032 -6.041725 25.674270 0.977069 -5.653589 2.347703 -7.060830 5.847738 -0.048224 -0.013911 -0.029860
5.865919 89.883512 19.891721 -37.135795 -9.078015 -0.637965 3.379651 1.792057 -0.090514 1.521208 0.764167 -0.000353 1.521208 0.764167 -0.000353 1.140889 0.573129 -0.002167 -2.162702 29.548232 1.675133 -4.142698 18.774935 3.367056 5.624763 23.618862 15.459125 35.734812 -8.853100 69.471343 24.943866 2.263499 -8.549640 -6.874605 8.419013 -4.325574 -26.198276 29.131904 -22.116851 -40.973452 13.699973 -66.764632 -42.783704 -17.203722 10.060556 8.137343 4.272266 9.884822 -8.024059 -19.389364 -2.349864 -5.592361 39.063604 -25.663881 4.095063 21.111272 -10.603781 -0.820197 -3.646072 1.070977 -21.857187 13.173419 -6.139039 25.643073 0.983437 -5.655332 2.307534 -7.054770 5.893959 -0.034574 -0.025779 -0.047967
5.859370 89.865266 19.944511 -36.986047 -9.198968 -0.659405 3.388392 1.774300 -0.081398 1.505102 0.775260 -0.000090 1.505102 0.775260 -0.000090 1.128809 0.581449 -0.001977 -2.220991 29.554373 1.689137 -4.248457 18.789541 3.402307 5.619497 23.630614 15.463768 35.659689 -8.900952 69.614631 23.861851 2.335699 -8.202044 -6.858679 8.440799 -4.306447 -26.192098 29.101005 -22.129278 -41.018267 13.743330 -66.758031 -43.018216 -17.108200 10.255560 8.151358 4.265453 9.954351 -7.334376 -19.481270 -2.780394 -5.848432 38.848031 -25.720421 5.155330 22.363264 -10.601686 -0.697009 -3.298269 0.932152 -21.907820 13.292709 -6.186787 25.531236 1.008326 -5.650767 2.331505 -7.082732 5.944017 -0.033753 -0.018039 -0.069792
5.845571 89.845171 20.013348 -36.779933 -9.315891 -0.694826 3.369868 1.765514 -0.063522 1.490199 0.775173 0.002136 1.490199 0.775173 0.002136 1.117630 0.581389 -0.000288 -2.289418 29.560074 1.695574 -4.370822 18.803480 3.425987 5.610281 23.637407 15.460357 35.552254 -8.948848 69.774699 22.736418 2.384611 -7.822480 -6.832624 8.443865 -4.267124 -26.166613 29.066894 -22.133010 -41.030518 13.756648 -66.776431 -43.181342 -16.996733 10.389589 8.163985 4.259935 10.011633 -6.809762 -19.370404 -3.216137 -5.942818 38.356766 -25.654984 6.405106 23.484337 -10.422375 -0.559657 -2.915655 0.745289 -22.042550 13.412332 -6.243672 25.477335 1.034223 -5.651081 2.373424 -7.124605 6.010543 -0.059405 -0.002913 -0.099271
5.827359 89.824378 20.103491 -36.517762 -9.429186 -0.716263 3.329868 1.769795 -0.068899 1.475339 0.767320 0.005654 1.475339 0.767320 0.005654 1.106481 0.575508 0.002388 -2.364945 29.561144 1.698653 -4.505288 18.809041 3.445143 5.596989 23.633812 15.454610 35.417812 -8.991532 69.945186 21.607708 2.398008 -7.396699 -6.790314 8.421460 -4.200034 -26.128157 29.019836 -22.120863 -40.995398 13.744709 -66.812378 -43.282147 -16.876456 10.448767 8.176968 4.254773 10.063149 -6.318846 -19.108197 -3.729511 -6.053716 37.714024 -25.561519 7.829836 24.502240 -9.824908 -0.520967 -2.572661 0.413119 -22.209881 13.526149 -6.319292 25.504948 1.079366 -5.649602 2.305111 -7.172470 6.071091 -0.072683 0.009536 -0.117782
5.802011 89.804049 20.214585 -36.213198 -9.572899 -0.715246 3.276098 1.797582 -0.096133 1.461675 0.759664 0.009739 1.461675 0.759664 0.009739 1.096228 0.569776 0.005487 -2.448261 29.556198 1.697162 -4.652893 18.803626 3.457811 5.589291 23.623202 15.452818 35.283495 -8.997397 70.120060 20.525375 2.323960 -6.929598 -6.705805 8.372860 -4.093236 -26.083159 28.969654 -22.101959 -40.908920 13.705593 -66.869425 -43.327762 -16.740545 10.433590 8.181751 4.245617 10.105942 -5.768734 -18.729408 -4.390988 -6.000490 37.190817 -25.234293 9.222935 25.287299 -8.895308 -0.517598 -2.279256 -0.002899 -22.410169 13.654924 -6.431897 25.488240 1.149395 -5.635053 2.204559 -7.237340 6.111647 -0.064550 0.025108 -0.119890
5.773464 89.783157 20.323449 -35.935858 -9.658907 -0.726074 3.260928 1.759341 -0.102781 1.450187 0.752091 0.014324 1.450187 0.752091 0.014324 1.087607 0.564106 0.008958 -2.535996 29.543181 1.689786 -4.807483 18.783204 3.461140 5.585676 23.599200 15.445242 35.179036 -8.964346 70.320345 19.512646 2.126409 -6.501208 -6.549197 8.315576 -3.928579 -26.030811 28.909907 -22.086762 -40.796583 13.660936 -66.940924 -43.338413 -16.636796 10.385067 8.180096 4.244737 10.139260 -5.160458 -18.280402 -5.058519 -5.836844 36.621355 -24.797573 10.610769 25.854723 -7.674484 0.273097 -6.824996 7.068251 -22.562706 13.744293 -6.505452 25.368252 1.202387 -5.621298 2.233735 -7.304873 6.136395 -0.049944 0.042797 -0.113334
5.735574 89.765533 20.441940 -35.636411 -9.783164 -0.723785 3.232058 1.753960 -0.127294 1.445102 0.747198 0.017327 1.445102 0.747198 0.017327 1.083790 0.560443 0.011229 -2.623523 29.524079 1.685548 -4.962446 18.751697 3.470238 5.588671 23.550963 15.449213 35.089094 -8.910174 70.539790 18.569754 1.797858 -6.119013 -6.353076 8.227025 -3.737697 -25.975670 28.850658 -22.059236 -40.682094 13.619957 -67.027654 -43.292321 -16.523881 10.294140 8.164487 4.208754 10.173437 -4.627724 -17.636766 -5.716269 -5.372655 36.093999 -24.240702 11.924909 26.105955 -6.137783 0.415589 -10.414291 11.733596 -22.757134 13.863077 -6.604205 25.261361 1.271492 -5.615622 2.187307 -7.377189 6.159350 -0.026201 0.061557 -0.098743
5.687352 89.751455 20.571514 -35.336385 -9.971440 -0.692995 3.202075 1.787190 -0.182351 1.447646 0.751216 0.020208 1.447646 0.751216 0.020208 1.085694 0.563464 0.013376 -2.709621 29.499269 1.684183 -5.115563 18.709746 3.484420 5.593913 23.507728 15.456846 34.998495 -8.862236 70.759013 17.697308 1.353868 -5.729646 -6.160842 8.093545 -3.571254 -25.927176 28.793169 -22.034188 -40.586282 13.603983 -67.123124 -43.213912 -16.468117 10.208961 8.149069 4.187230 10.201134 -4.166944 -16.787889 -6.422307 -4.719766 35.606320 -23.646278 13.256243 26.083619 -4.148938 0.131863 -13.500921 14.672911 -22.961887 14.039396 -6.762171 25.219040 1.338718 -5.617273 2.129747 -7.437493 6.184215 -0.006104 0.060087 -0.084439
5.635088 89.741918 20.717841 -35.021073 -10.205126 -0.637418 3.157893 1.852715 -0.271357 1.454500 0.758836 0.023212 1.454500 0.758836 0.023212 1.090830 0.569186 0.015603 -2.792224 29.473327 1.686239 -5.263149 18.665777 3.504117 5.592319 23.464888 15.462160 34.945177 -8.793280 70.976288 16.869728 0.829056 -5.360767 -5.994480 7.911132 -3.407641 -25.878602 28.740213 -22.005740 -40.516013 13.611578 -67.228420 -43.091711 -16.447278 10.123533 8.123989 4.153300 10.231677 -3.731317 -15.735161 -7.109836 -3.220568 35.413263 -22.710154 13.734798 25.861684 -1.762214 -0.339572 -16.292639 16.353711 -23.215928 14.253570 -6.972413 25.190247 1.408854 -5.614078 2.058382 -7.498115 6.192753 0.025083 0.048874 -0.062118
5.558045 89.732371 20.842679 -34.781614 -10.344115 -0.706923 3.195262 1.826030 -0.234357 1.461858 0.761519 0.024245 1.461858 0.761519 0.024245 1.096348 0.571201 0.016362 -2.871450 29.448989 1.690346 -5.405090 18.624799 3.526815 5.594924 23.406113 15.473042 34.898487 -8.711464 71.198983 16.038946 0.301332 -5.035907 -5.862263 7.727906 -3.225857 -25.822005 28.679132 -21.971194 -40.449150 13.641838 -67.347118 -42.916674 -16.447943 10.027557 8.093167 4.116402 10.265458 -3.383424 -14.642957 -7.611245 -1.571994 35.105869 -21.601079 13.981620 25.457481 0.403219 -0.785767 -18.677808 17.296277 -23.377061 14.439156 -7.016898 25.132387 1.477838 -5.597658 2.054431 -7.611983 6.179956 0.027255 0.078187 -0.044807
